{"title":"BeyoncÃƒÂ© - I am... World Tour - DivX Perfect","uid":6191675,"size":1300618143,"categoryP":"video","categoryS":"movie_clips","magnet":"?xt=urn:btih:89ffbb3da3dc8da0f2aa8736fe5dceffc1ae67da&amp;dn=Beyonc%C3%83%C2%A9+-+I+am...+World+Tour+-+DivX+Perfect&amp;tr=udp%3A%2F%2Ftracker.openbittorrent.com%3A80&amp;tr=udp%3A%2F%2Fopen.demonii.com%3A1337&amp;tr=udp%3A%2F%2Ftracker.coppersurfer.tk%3A6969&amp;tr=udp%3A%2F%2Fexodus.desync.com%3A6969","seeders":12,"leechers":6,"uploader":"PEMP3","files":-1,"time":1298310342,"description":"BeyoncÃƒÂ© I am... World Tour - DivX Perfect\n\nDivX\n\nGeneral\nFormat                           : AVI\nFormat/Info                      : Audio Video Interleave\n\n\nVideo\nID                               : 0\nFormat                           : MPEG-4 Visual\nFormat settings, BVOP            : Yes\nFormat settings, QPel            : No\nFormat settings, GMC             : No warppoints\nFormat settings, Matrix          : Default (H.263)\nMuxing mode                      : Packed bitstream\nCodec ID                         : DX50\nCodec ID/Hint                    : DivX 5\nDuration                         : 2mn 51s\nBit rate                         : 1 420 Kbps\nWidth                            : 720 pixels\nHeight                           : 408 pixels\nDisplay aspect ratio             : 16:9\nFrame rate                       : 29.970 fps\nColor space                      : YUV\nChroma subsampling               : 4:2:0\nBit depth                        : 8 bits\nScan type                        : Progressive\nBits/(Pixel*Frame)               : 0.161\nStream size                      : 29.1 MiB (81%)\nWriting library                  : DivX 3330\n\nAudio\nID                               : 1\nFormat                           : AC-3\nFormat/Info                      : Audio Coding 3\nMode extension                   : CM (complete main)\nCodec ID                         : 2000\nDuration                         : 2mn 51s\nBit rate mode                    : Constant\nBit rate                         : 320 Kbps\nChannel(s)                       : 2 channels\nChannel positions                : Front: L R\nSampling rate                    : 44.1 KHz\nBit depth                        : 16 bits\nStream size                      : 6.55 MiB (18%)\nAlignment                        : Split accross interleaves\nInterleave, duration             : 33 ms (1.00 video frame)\nInterleave, preload duration     : 499 ms","torrent":{"xt":"urn:btih:89ffbb3da3dc8da0f2aa8736fe5dceffc1ae67da","amp;dn":"Beyonc%C3%83%C2%A9+-+I+am...+World+Tour+-+DivX+Perfect","amp;tr":["udp%3A%2F%2Ftracker.openbittorrent.com%3A80","udp%3A%2F%2Fopen.demonii.com%3A1337","udp%3A%2F%2Ftracker.coppersurfer.tk%3A6969","udp%3A%2F%2Fexodus.desync.com%3A6969"],"infoHash":"89ffbb3da3dc8da0f2aa8736fe5dceffc1ae67da","infoHashBuffer":{"type":"Buffer","data":[137,255,187,61,163,220,141,160,242,170,135,54,254,93,206,255,193,174,103,218]},"announce":[],"urlList":[]}}